<?xml version="1.0" encoding="UTF-8"?> <svg xmlns="http://www.w3.org/2000/svg" width="174.153" height="71.369" viewBox="0 0 174.153 71.369"><defs><style>.a{isolation:isolate;}.b{fill:#fff;}.c{fill:none;stroke:#d8ac47;stroke-miterlimit:10;stroke-width:1.123px;}</style></defs><g class="a" transform="translate(-14354.649 1431.509)"><g transform="translate(14370.356 -1371.65)"><path class="b" d="M250.728,315.6c-.205-.1-.22-.164-.22-.559,0-.736.059-1.321.072-1.557.017-.164.045-.235.119-.235s.1.042.1.159a2.715,2.715,0,0,0,.042.543,2,2,0,0,0,2.172,1.5,1.96,1.96,0,0,0,2.1-1.951c0-1.015-.426-1.6-1.688-2.646l-.659-.543c-1.557-1.276-1.912-2.188-1.912-3.185,0-1.571,1.177-2.642,3.04-2.642a5.812,5.812,0,0,1,1.369.146,2.319,2.319,0,0,0,.511.073c.119,0,.147.031.147.1s-.059.56-.059,1.557c0,.235-.028.337-.106.337s-.1-.073-.117-.191a2.574,2.574,0,0,0-.188-.734c-.09-.16-.485-.779-1.836-.779a1.673,1.673,0,0,0-1.809,1.7c0,.836.385,1.368,1.8,2.468l.408.323c1.735,1.363,2.149,2.275,2.149,3.452a3.048,3.048,0,0,1-1.251,2.436,3.852,3.852,0,0,1-2.216.615A4.5,4.5,0,0,1,250.728,315.6Z" transform="translate(-250.508 -304.482)"></path><path class="b" d="M265.469,307.435c.166-.41.226-.486.311-.486.133,0,.175.179.31.455.234.528,2.3,5.686,3.1,7.579.472,1.116.821,1.277,1.1,1.363a1.7,1.7,0,0,0,.512.076c.077,0,.162.026.162.1s-.146.1-.294.1c-.191,0-1.143,0-2.041-.03-.247-.017-.454-.017-.454-.089s.033-.06.089-.086a.237.237,0,0,0,.119-.336l-1.16-2.864c-.032-.062-.047-.077-.118-.077h-2.981a.142.142,0,0,0-.133.1l-.732,2a2.625,2.625,0,0,0-.192.842c0,.247.218.336.439.336h.117c.1,0,.135.042.135.1s-.071.1-.193.1c-.305,0-1.014-.046-1.158-.046s-.778.046-1.309.046c-.156,0-.248-.03-.248-.1a.112.112,0,0,1,.116-.1,3.209,3.209,0,0,0,.383-.031c.588-.071.835-.512,1.086-1.147Zm1.439,5.2c.065,0,.065-.03.046-.088l-1.274-3.42c-.076-.194-.149-.194-.224,0l-1.2,3.42c-.014.059,0,.088.042.088Z" transform="translate(-254.027 -305.322)"></path><path class="b" d="M278.632,310.921c0-1.941,0-2.294-.03-2.69-.031-.424-.1-.66-.53-.721-.1-.01-.321-.026-.439-.026-.044,0-.1-.03-.1-.077,0-.071.056-.1.2-.1.589,0,1.426.032,1.5.032.313,0,.909-.032,1.514-.032,2.158,0,2.713,1.251,2.713,1.91a2.954,2.954,0,0,1-1.3,2.188,2.972,2.972,0,0,1,2.273,2.6c0,1.394-1.04,2.777-3.244,2.777-.236,0-.707-.016-1.116-.045s-.778-.032-.838-.032c-.026,0-.259.017-.529.017-.26.015-.575.03-.776.03-.134,0-.206-.03-.206-.1,0-.046.028-.076.1-.076a3.344,3.344,0,0,0,.4-.057c.245-.045.277-.323.334-.691a24.989,24.989,0,0,0,.075-2.7Zm1.116.261c0,.087.03.116.088.133a3.994,3.994,0,0,0,.794.057c.718,0,1-.027,1.261-.323a1.891,1.891,0,0,0,.5-1.336,1.831,1.831,0,0,0-1.823-2.007,4,4,0,0,0-.66.056c-.119.03-.162.061-.162.134Zm0,1.382c0,.969,0,2.465.014,2.656.043.6.043.749.445.939a3.023,3.023,0,0,0,1.124.177,1.71,1.71,0,0,0,1.895-1.926,2.465,2.465,0,0,0-2.39-2.6c-.163-.027-.811-.027-1.013-.027-.045,0-.074.027-.074.087Z" transform="translate(-259.705 -305.443)"></path><path class="b" d="M292.063,310.868c0-1.941,0-2.294-.027-2.689-.029-.424-.1-.629-.53-.69a3.629,3.629,0,0,0-.437-.031.121.121,0,0,1-.1-.1c0-.071.058-.1.2-.1.589,0,1.426.032,1.5.032.09,0,2.79.013,3.081,0a5.837,5.837,0,0,0,.588-.074c.061-.015.119-.061.179-.061.042,0,.058.061.058.119,0,.087-.073.235-.1.588-.014.117-.043.675-.071.821-.014.061-.061.133-.119.133-.076,0-.1-.057-.1-.16a1.3,1.3,0,0,0-.073-.439c-.09-.21-.224-.3-.925-.385-.217-.029-1.72-.046-1.865-.046-.059,0-.073.046-.073.133v3.4c0,.086,0,.128.073.128.161,0,1.865,0,2.16-.026s.5-.045.63-.178c.085-.088.144-.159.191-.159s.071.026.071.1a6.756,6.756,0,0,0-.1.691c-.032.247-.065.718-.065.806s-.025.235-.116.235c-.058,0-.086-.041-.086-.119a1.115,1.115,0,0,0-.057-.408c-.048-.179-.164-.323-.662-.385-.354-.041-1.733-.057-1.953-.057-.073,0-.086.044-.086.089v1.043c0,.426-.016,1.879,0,2.126.03.84.263,1,1.54,1a4.407,4.407,0,0,0,1.294-.129.957.957,0,0,0,.587-.871c.028-.144.059-.19.132-.19s.084.1.084.19a10.451,10.451,0,0,1-.17,1.207c-.09.325-.22.325-.724.325-.969,0-1.714-.031-2.244-.046-.54-.032-.877-.032-1.073-.032-.026,0-.278,0-.559.017-.246.015-.543.03-.747.03-.135,0-.206-.03-.206-.1a.1.1,0,0,1,.1-.1,3.562,3.562,0,0,0,.4-.06c.247-.042.278-.294.335-.662a25.68,25.68,0,0,0,.073-2.7Z" transform="translate(-264.277 -305.39)"></path><path class="b" d="M304.762,310.921c0-1.941,0-2.294-.026-2.69-.031-.424-.108-.629-.532-.69a3.724,3.724,0,0,0-.442-.031.123.123,0,0,1-.1-.1c0-.071.06-.1.206-.1.589,0,1.453.032,1.529.032.128,0,1.217-.032,1.614-.032a4.239,4.239,0,0,1,2.4.545,2.186,2.186,0,0,1,.9,1.7,3.638,3.638,0,0,1-1.588,2.848c1.059,1.321,1.955,2.451,2.7,3.231a2.449,2.449,0,0,0,1.894.91.114.114,0,0,1,.12.1c0,.073-.077.1-.309.1h-.809a2.609,2.609,0,0,1-1.381-.25,6.553,6.553,0,0,1-1.763-1.834c-.54-.675-1.114-1.484-1.393-1.824a.2.2,0,0,0-.174-.072l-1.649-.029c-.057,0-.086.029-.086.1v.3c0,1.2,0,2.172.061,2.682.043.368.115.606.511.662a4.8,4.8,0,0,0,.577.06.1.1,0,0,1,.1.1c0,.056-.065.1-.209.1-.707,0-1.527-.046-1.588-.046-.015,0-.879.046-1.275.046-.133,0-.2-.03-.2-.1a.1.1,0,0,1,.1-.1,1.883,1.883,0,0,0,.4-.06c.253-.057.274-.294.337-.662a26.151,26.151,0,0,0,.071-2.7Zm1.116,1.055a.2.2,0,0,0,.086.163,4.484,4.484,0,0,0,1.429.188,1.687,1.687,0,0,0,.97-.219,2.238,2.238,0,0,0,.775-1.911,2.158,2.158,0,0,0-2.232-2.452,5.3,5.3,0,0,0-.923.077.16.16,0,0,0-.1.144Z" transform="translate(-268.597 -305.443)"></path><path class="b" d="M327.824,310.921c0-1.941,0-2.294-.027-2.69-.03-.424-.108-.629-.534-.69a3.561,3.561,0,0,0-.435-.031.124.124,0,0,1-.1-.1c0-.071.061-.1.2-.1.59,0,1.4.032,1.5.032.274,0,1.248-.032,1.832-.032a3.351,3.351,0,0,1,2.467.708,2.1,2.1,0,0,1,.647,1.5c0,1.79-1.352,2.98-3.334,2.98-.072,0-.292,0-.364-.011a.145.145,0,0,1-.135-.119c0-.106.075-.133.338-.133a2.168,2.168,0,0,0,2.391-2.013,2.549,2.549,0,0,0-.731-1.9,2.2,2.2,0,0,0-1.748-.6,4.322,4.322,0,0,0-.72.088c-.071.015-.1.1-.1.234v5.081c0,1.2,0,2.188.055,2.7.047.368.12.606.517.662a4.913,4.913,0,0,0,.575.06.1.1,0,0,1,.1.1c0,.056-.063.1-.207.1-.706,0-1.555-.046-1.617-.046-.043,0-.881.046-1.276.046-.131,0-.2-.03-.2-.1a.1.1,0,0,1,.1-.1,1.836,1.836,0,0,0,.4-.06c.253-.057.276-.294.336-.662a24.8,24.8,0,0,0,.075-2.7Z" transform="translate(-276.446 -305.443)"></path><path class="b" d="M341.557,307.435c.162-.41.22-.486.305-.486.136,0,.181.179.311.455.234.528,2.306,5.686,3.1,7.579.469,1.116.821,1.277,1.1,1.363a1.719,1.719,0,0,0,.516.076c.073,0,.157.026.157.1s-.142.1-.293.1c-.188,0-1.143,0-2.042-.03-.245-.017-.449-.017-.449-.089s.025-.06.085-.086a.235.235,0,0,0,.118-.336l-1.162-2.864c-.029-.062-.041-.077-.117-.077H340.2a.146.146,0,0,0-.134.1l-.732,2a2.628,2.628,0,0,0-.189.842c0,.247.22.336.44.336h.117c.1,0,.135.042.135.1s-.077.1-.2.1c-.309,0-1.017-.046-1.158-.046s-.778.046-1.3.046c-.163,0-.251-.03-.251-.1a.11.11,0,0,1,.116-.1,3.188,3.188,0,0,0,.381-.031c.586-.071.839-.512,1.09-1.147Zm1.439,5.2c.054,0,.054-.03.046-.088l-1.28-3.42c-.073-.194-.148-.194-.22,0l-1.2,3.42c-.014.059,0,.088.047.088Z" transform="translate(-279.921 -305.322)"></path><path class="b" d="M354.713,310.921c0-1.941,0-2.294-.026-2.69-.028-.424-.1-.629-.532-.69a3.711,3.711,0,0,0-.441-.031.121.121,0,0,1-.1-.1c0-.071.058-.1.2-.1.59,0,1.457.032,1.531.032.128,0,1.219-.032,1.612-.032a4.249,4.249,0,0,1,2.408.545,2.185,2.185,0,0,1,.9,1.7,3.645,3.645,0,0,1-1.59,2.848c1.062,1.321,1.955,2.451,2.7,3.231a2.364,2.364,0,0,0,1.439.866,2.338,2.338,0,0,0,.456.045.113.113,0,0,1,.116.1c0,.073-.074.1-.309.1h-.807a2.614,2.614,0,0,1-1.382-.25,6.606,6.606,0,0,1-1.76-1.834c-.542-.675-1.118-1.484-1.394-1.824a.208.208,0,0,0-.175-.072l-1.648-.029c-.056,0-.088.029-.088.1v.3c0,1.2,0,2.172.062,2.682.04.368.115.606.513.662a4.818,4.818,0,0,0,.573.06.093.093,0,0,1,.1.1c0,.056-.061.1-.206.1-.705,0-1.527-.046-1.587-.046-.014,0-.881.046-1.276.046-.134,0-.207-.03-.207-.1a.1.1,0,0,1,.1-.1,1.831,1.831,0,0,0,.394-.06c.253-.057.28-.294.34-.662a26.41,26.41,0,0,0,.071-2.7Zm1.117,1.055a.2.2,0,0,0,.088.163,4.452,4.452,0,0,0,1.43.188,1.682,1.682,0,0,0,.966-.219,2.237,2.237,0,0,0,.779-1.911,2.16,2.16,0,0,0-2.233-2.452,5.392,5.392,0,0,0-.928.077.16.16,0,0,0-.1.144Z" transform="translate(-285.598 -305.443)"></path><path class="b" d="M371.381,307.435c.161-.41.222-.486.309-.486.132,0,.175.179.306.455.235.528,2.307,5.686,3.1,7.579.47,1.116.825,1.277,1.1,1.363a1.716,1.716,0,0,0,.515.076c.072,0,.161.026.161.1s-.15.1-.293.1c-.194,0-1.147,0-2.042-.03-.253-.017-.458-.017-.458-.089s.032-.06.092-.086a.231.231,0,0,0,.114-.336l-1.16-2.864c-.028-.062-.046-.077-.114-.077H370.03a.14.14,0,0,0-.134.1l-.73,2a2.528,2.528,0,0,0-.189.842c0,.247.216.336.438.336h.115c.1,0,.131.042.131.1s-.071.1-.189.1c-.306,0-1.013-.046-1.158-.046s-.778.046-1.31.046c-.159,0-.247-.03-.247-.1a.111.111,0,0,1,.12-.1,3.224,3.224,0,0,0,.378-.031c.588-.071.835-.512,1.087-1.147Zm1.438,5.2c.059,0,.059-.03.044-.088l-1.276-3.42c-.071-.194-.15-.194-.22,0l-1.2,3.42c-.016.059,0,.088.04.088Z" transform="translate(-290.071 -305.322)"></path><path class="b" d="M391.748,315.6c-.205-.1-.219-.164-.219-.559,0-.736.06-1.321.076-1.557.015-.164.04-.235.118-.235s.1.042.1.159a2.9,2.9,0,0,0,.039.543,2,2,0,0,0,2.176,1.5,1.959,1.959,0,0,0,2.1-1.951c0-1.015-.421-1.6-1.689-2.646l-.658-.543c-1.557-1.276-1.913-2.188-1.913-3.185,0-1.571,1.18-2.642,3.043-2.642a5.781,5.781,0,0,1,1.367.146,2.371,2.371,0,0,0,.514.073c.117,0,.142.031.142.1s-.058.56-.058,1.557c0,.235-.027.337-.1.337s-.1-.073-.115-.191a2.675,2.675,0,0,0-.192-.734c-.088-.16-.488-.779-1.839-.779a1.667,1.667,0,0,0-1.8,1.7c0,.836.379,1.368,1.788,2.468l.413.323c1.73,1.363,2.143,2.275,2.143,3.452a3.057,3.057,0,0,1-1.248,2.436,3.852,3.852,0,0,1-2.215.615A4.512,4.512,0,0,1,391.748,315.6Z" transform="translate(-298.501 -304.482)"></path><path class="b" d="M405.331,310.868c0-1.941,0-2.294-.031-2.689-.028-.424-.1-.629-.526-.69a3.758,3.758,0,0,0-.441-.031.122.122,0,0,1-.106-.1c0-.071.059-.1.206-.1.588,0,1.423.032,1.5.032.092,0,2.791.013,3.083,0,.25-.016.487-.057.59-.074.06-.015.116-.061.18-.061.039,0,.056.061.056.119,0,.087-.073.235-.1.588-.018.117-.047.675-.074.821-.016.061-.06.133-.119.133s-.1-.057-.1-.16a1.31,1.31,0,0,0-.075-.439c-.089-.21-.22-.3-.922-.385-.219-.029-1.722-.046-1.866-.046-.06,0-.073.046-.073.133v3.4c0,.086,0,.128.073.128.159,0,1.866,0,2.157-.026.307-.032.495-.045.631-.178.09-.088.146-.159.191-.159s.076.026.076.1a5.941,5.941,0,0,0-.1.691c-.031.247-.06.718-.06.806s-.029.235-.119.235c-.056,0-.09-.041-.09-.119a1.139,1.139,0,0,0-.056-.408c-.044-.179-.163-.323-.66-.385-.353-.041-1.734-.057-1.955-.057-.071,0-.084.044-.084.089v1.043c0,.426-.018,1.879,0,2.126.027.84.263,1,1.54,1a4.4,4.4,0,0,0,1.293-.129.958.958,0,0,0,.586-.871c.029-.144.06-.19.132-.19s.09.1.09.19a10.625,10.625,0,0,1-.175,1.207c-.089.325-.22.325-.722.325-.969,0-1.716-.031-2.245-.046-.542-.032-.879-.032-1.075-.032-.026,0-.274,0-.558.017-.246.015-.541.03-.747.03-.134,0-.205-.03-.205-.1a.1.1,0,0,1,.1-.1,3.6,3.6,0,0,0,.4-.06c.249-.042.278-.294.336-.662a24.778,24.778,0,0,0,.075-2.7Z" transform="translate(-302.823 -305.39)"></path><path class="b" d="M418.034,310.921c0-1.941,0-2.294-.029-2.69-.031-.424-.1-.629-.526-.69a3.768,3.768,0,0,0-.445-.031.119.119,0,0,1-.1-.1c0-.071.056-.1.2-.1.588,0,1.452.032,1.53.032.13,0,1.215-.032,1.612-.032a4.222,4.222,0,0,1,2.405.545,2.173,2.173,0,0,1,.9,1.7A3.649,3.649,0,0,1,422,312.4c1.055,1.321,1.949,2.451,2.7,3.231a2.449,2.449,0,0,0,1.895.91.116.116,0,0,1,.121.1c0,.073-.076.1-.309.1h-.811a2.594,2.594,0,0,1-1.377-.25,6.59,6.59,0,0,1-1.763-1.834c-.544-.675-1.115-1.484-1.395-1.824a.206.206,0,0,0-.177-.072l-1.644-.029c-.059,0-.092.029-.092.1v.3c0,1.2,0,2.172.06,2.682.047.368.119.606.515.662a4.875,4.875,0,0,0,.573.06.092.092,0,0,1,.1.1c0,.056-.057.1-.2.1-.708,0-1.526-.046-1.588-.046-.016,0-.879.046-1.276.046-.134,0-.206-.03-.206-.1a.1.1,0,0,1,.1-.1,1.893,1.893,0,0,0,.394-.06c.25-.057.279-.294.335-.662a24.355,24.355,0,0,0,.077-2.7Zm1.112,1.055a.2.2,0,0,0,.092.163,4.416,4.416,0,0,0,1.423.188,1.693,1.693,0,0,0,.971-.219,2.245,2.245,0,0,0,.774-1.911,2.155,2.155,0,0,0-2.23-2.452,5.356,5.356,0,0,0-.922.077.158.158,0,0,0-.107.144Z" transform="translate(-307.148 -305.443)"></path><path class="b" d="M434.962,315.119c.75-1.676,2.44-5.933,2.717-6.828a2.089,2.089,0,0,0,.115-.468.26.26,0,0,0-.174-.266,1.451,1.451,0,0,0-.441-.045c-.073,0-.148-.043-.148-.1s.088-.1.3-.1c.513,0,1.1.032,1.259.032.074,0,.635-.032,1.017-.032.132,0,.2.032.2.089s-.045.117-.147.117a1.2,1.2,0,0,0-.616.148c-.175.119-.382.292-.718,1.147-.146.354-.776,1.849-1.437,3.376-.792,1.822-1.367,3.17-1.66,3.79-.351.748-.427.937-.559.937-.148,0-.233-.159-.481-.764l-3.175-7.649c-.295-.7-.47-.836-.9-.938a2.387,2.387,0,0,0-.5-.045.111.111,0,0,1-.1-.117c0-.073.132-.089.338-.089.617,0,1.349.032,1.511.032.132,0,.705-.032,1.207-.032.232,0,.348.032.348.089a.116.116,0,0,1-.129.117,1.51,1.51,0,0,0-.472.061.2.2,0,0,0-.148.219,5.214,5.214,0,0,0,.354,1.041Z" transform="translate(-311.43 -305.443)"></path><path class="b" d="M449.136,313.122c0,1.2,0,2.188.059,2.7.04.368.086.606.468.662a5.411,5.411,0,0,0,.586.06.1.1,0,0,1,.1.1c0,.056-.061.1-.206.1-.718,0-1.557-.046-1.614-.046-.072,0-.878.046-1.28.046-.128,0-.206-.03-.206-.1a.1.1,0,0,1,.1-.1,1.884,1.884,0,0,0,.4-.06c.251-.057.294-.294.338-.662.058-.511.071-1.495.071-2.7v-2.2c0-1.941,0-2.294-.031-2.69-.027-.424-.128-.618-.41-.676a2.177,2.177,0,0,0-.394-.045.107.107,0,0,1-.1-.1c0-.071.056-.1.206-.1.427,0,1.233.032,1.3.032.056,0,.9-.032,1.291-.032.148,0,.206.032.206.1a.121.121,0,0,1-.1.1,1.4,1.4,0,0,0-.325.031c-.352.072-.424.249-.455.69-.013.4-.013.748-.013,2.69Z" transform="translate(-317.387 -305.443)"></path><path class="b" d="M456.524,310.921c0-1.941,0-2.294-.025-2.69-.029-.424-.107-.629-.53-.69a3.7,3.7,0,0,0-.441-.031.126.126,0,0,1-.1-.1c0-.071.063-.1.206-.1.588,0,1.456.032,1.53.032.128,0,1.22-.032,1.615-.032a4.239,4.239,0,0,1,2.405.545,2.184,2.184,0,0,1,.9,1.7,3.634,3.634,0,0,1-1.585,2.848c1.059,1.321,1.955,2.451,2.7,3.231a2.455,2.455,0,0,0,1.9.91.113.113,0,0,1,.117.1c0,.073-.073.1-.307.1h-.81a2.618,2.618,0,0,1-1.384-.25,6.559,6.559,0,0,1-1.759-1.834c-.546-.675-1.117-1.484-1.4-1.824a.2.2,0,0,0-.173-.072l-1.648-.029c-.059,0-.086.029-.086.1v.3c0,1.2,0,2.172.061,2.682.04.368.116.606.51.662a4.82,4.82,0,0,0,.575.06.09.09,0,0,1,.1.1c0,.056-.06.1-.2.1-.706,0-1.528-.046-1.588-.046-.014,0-.881.046-1.276.046-.132,0-.205-.03-.205-.1a.1.1,0,0,1,.1-.1,1.817,1.817,0,0,0,.394-.06c.252-.057.278-.294.342-.662.068-.511.068-1.495.068-2.7Zm1.12,1.055a.191.191,0,0,0,.086.163,4.464,4.464,0,0,0,1.427.188,1.679,1.679,0,0,0,.967-.219,2.236,2.236,0,0,0,.78-1.911,2.161,2.161,0,0,0-2.234-2.452,5.355,5.355,0,0,0-.924.077.161.161,0,0,0-.1.144Z" transform="translate(-320.246 -305.443)"></path></g><g transform="translate(14356.925 -1431.51)"><path class="b" d="M231.77,219.555c0-2.912,0-3.438-.038-4.038-.038-.631-.182-.933-.8-1.061a3.415,3.415,0,0,0-.639-.058c-.076,0-.147-.036-.147-.114,0-.11.088-.149.3-.149.836,0,1.975.057,2.151.057s1.284-.057,1.847-.057c.205,0,.3.039.3.149,0,.078-.074.114-.15.114a2.671,2.671,0,0,0-.468.058c-.507.071-.652.408-.689,1.061-.041.6-.041,1.125-.041,4.038v2.616c0,2.691.6,3.848,1.4,4.617a3.658,3.658,0,0,0,2.826,1.028,3.925,3.925,0,0,0,2.931-1.344c.86-1.065,1.085-2.655,1.085-4.577v-2.34c0-2.912,0-3.438-.038-4.038-.036-.631-.186-.933-.8-1.061a3.351,3.351,0,0,0-.636-.058c-.074,0-.146-.036-.146-.114,0-.11.092-.149.3-.149.844,0,1.864.057,1.983.057s1.007-.057,1.567-.057c.207,0,.3.039.3.149,0,.078-.071.114-.146.114a2.668,2.668,0,0,0-.47.058c-.5.108-.654.408-.689,1.061-.038.6-.038,1.125-.038,4.038v2c0,2.019-.226,4.259-1.72,5.588a5.472,5.472,0,0,1-3.849,1.382A5.748,5.748,0,0,1,233.4,227.2c-.915-.877-1.625-2.183-1.625-4.913Z" transform="translate(-230.147 -213.874)"></path><path class="b" d="M260.532,225.59c.037,1.53.222,2.017.73,2.168a4.192,4.192,0,0,0,.933.11c.094,0,.149.038.149.115,0,.109-.112.148-.336.148-1.067,0-1.814-.057-1.979-.057s-.953.057-1.8.057c-.186,0-.294-.02-.294-.148,0-.078.052-.115.147-.115a2.756,2.756,0,0,0,.766-.11c.47-.134.564-.675.564-2.373l.015-10.712c0-.727.057-.932.209-.932s.465.41.65.6c.282.317,3.066,3.329,5.944,6.411,1.847,1.982,3.888,4.259,4.486,4.874l-.208-9.491c-.016-1.215-.148-1.624-.726-1.773a4.914,4.914,0,0,0-.916-.095c-.129,0-.15-.057-.15-.129,0-.114.15-.135.373-.135.844,0,1.74.057,1.943.057s.823-.057,1.589-.057c.205,0,.337.02.337.135,0,.071-.079.129-.207.129a1.569,1.569,0,0,0-.446.058c-.619.128-.693.538-.693,1.661l-.037,10.951c0,1.234-.037,1.325-.173,1.325s-.37-.2-1.36-1.2c-.206-.185-2.9-2.93-4.878-5.06-2.166-2.34-4.279-4.692-4.878-5.364Z" transform="translate(-239.604 -213.74)"></path><path class="b" d="M292.116,222.847c0,1.79,0,3.268.094,4.054.055.54.172.953.728,1.024a7.87,7.87,0,0,0,.843.075c.11,0,.148.057.148.115,0,.09-.094.148-.3.148-1.024,0-2.2-.057-2.3-.057s-1.273.057-1.831.057c-.206,0-.3-.039-.3-.148,0-.058.036-.115.144-.115a2.825,2.825,0,0,0,.565-.075c.371-.071.468-.485.542-1.024.091-.786.091-2.265.091-4.054v-3.292c0-2.912,0-3.438-.036-4.038-.038-.631-.226-.953-.636-1.044a2.479,2.479,0,0,0-.58-.075c-.073,0-.148-.036-.148-.114,0-.11.094-.149.3-.149.615,0,1.794.057,1.888.057s1.272-.057,1.83-.057c.206,0,.3.039.3.149,0,.078-.075.114-.15.114a2.626,2.626,0,0,0-.465.058c-.5.092-.657.408-.69,1.061-.042.6-.042,1.125-.042,4.038Z" transform="translate(-250.227 -213.874)"></path><path class="b" d="M309.164,225.987c1.084-2.508,3.585-9.03,4-10.375a2.765,2.765,0,0,0,.164-.71.462.462,0,0,0-.241-.429,2.368,2.368,0,0,0-.711-.075c-.112,0-.2-.02-.2-.114,0-.11.109-.149.408-.149.747,0,1.607.057,1.829.057.115,0,.916-.057,1.461-.057.2,0,.318.039.318.135s-.075.129-.224.129a1.686,1.686,0,0,0-.9.224c-.243.168-.523.486-1.03,1.759-.2.524-1.14,2.764-2.093,5.064-1.142,2.726-1.98,4.744-2.41,5.661-.523,1.119-.6,1.42-.787,1.42-.222,0-.318-.261-.669-1.158L303.5,215.912c-.411-1.048-.693-1.252-1.346-1.439a2.914,2.914,0,0,0-.711-.075c-.114,0-.15-.057-.15-.129,0-.114.184-.135.485-.135.9,0,1.965.057,2.187.057.185,0,1.026-.057,1.74-.057.332,0,.5.039.5.135s-.058.129-.19.129a2.153,2.153,0,0,0-.71.095.369.369,0,0,0-.242.371,7.134,7.134,0,0,0,.5,1.555Z" transform="translate(-254.361 -213.874)"></path><path class="b" d="M330.591,219.479c0-2.912,0-3.438-.036-4.038-.036-.631-.187-.933-.8-1.061a3.39,3.39,0,0,0-.638-.058c-.071,0-.149-.036-.149-.114,0-.11.1-.149.3-.149.429,0,.933,0,1.346.02l.767.037c.129,0,3.849,0,4.278-.018a4.974,4.974,0,0,0,.8-.094c.092-.018.166-.091.261-.091.055,0,.073.073.073.167,0,.129-.09.357-.146.877-.021.19-.057,1.009-.1,1.234-.02.1-.054.2-.129.2-.115,0-.151-.09-.151-.243a1.959,1.959,0,0,0-.113-.671c-.131-.3-.317-.524-1.327-.633-.314-.038-2.352-.059-2.561-.059-.073,0-.11.059-.11.187v5.16c0,.129.02.186.11.186.245,0,2.545,0,2.974-.038.449-.039.711-.078.877-.263.133-.146.206-.243.28-.243.057,0,.095.039.095.15s-.095.43-.152,1.046c-.038.375-.074,1.068-.074,1.2,0,.151,0,.358-.13.358-.1,0-.133-.079-.133-.173a1.9,1.9,0,0,0-.075-.614c-.077-.262-.241-.582-.972-.653-.5-.059-2.353-.094-2.674-.094a.117.117,0,0,0-.127.132v1.645c0,.632-.017,2.8,0,3.191.054,1.29.334,1.532,2.17,1.532a5.391,5.391,0,0,0,1.791-.2c.487-.2.711-.579.842-1.348.034-.2.075-.276.168-.276.109,0,.109.148.109.276a16.973,16.973,0,0,1-.243,1.817c-.129.486-.277.486-1,.486-1.4,0-2.431-.04-3.161-.057-.73-.039-1.176-.057-1.456-.057-.041,0-.358,0-.749.018-.373,0-.8.039-1.081.039-.211,0-.3-.039-.3-.148,0-.058.037-.115.145-.115a2.858,2.858,0,0,0,.567-.075c.371-.071.466-.485.54-1.024.09-.786.09-2.265.09-4.054Z" transform="translate(-263.778 -213.799)"></path><path class="b" d="M351.213,219.555c0-2.912,0-3.438-.036-4.038-.038-.631-.186-.933-.8-1.061a3.381,3.381,0,0,0-.637-.058c-.075,0-.147-.036-.147-.114,0-.11.091-.149.3-.149.837,0,2.017.057,2.112.057.2,0,1.624-.057,2.2-.057a5.748,5.748,0,0,1,3.419.825,3.252,3.252,0,0,1,1.29,2.541c0,1.381-.576,2.762-2.259,4.316,1.533,1.963,2.806,3.626,3.887,4.784a3.831,3.831,0,0,0,2.278,1.342,4.408,4.408,0,0,0,.73.057c.1,0,.17.057.17.115,0,.109-.113.148-.447.148h-1.33a3.849,3.849,0,0,1-2-.354,9.788,9.788,0,0,1-2.522-2.748c-.787-1.03-1.663-2.277-2.034-2.765a.312.312,0,0,0-.244-.115l-2.3-.036c-.092,0-.13.057-.13.151v.449c0,1.79,0,3.268.092,4.054.058.54.169.953.73,1.024a7.813,7.813,0,0,0,.84.075c.109,0,.149.057.149.115,0,.09-.091.148-.3.148-1.025,0-2.2-.057-2.3-.057-.017,0-1.2.057-1.757.057-.2,0-.293-.039-.293-.148,0-.058.032-.115.144-.115a2.877,2.877,0,0,0,.565-.075c.373-.071.466-.485.538-1.024.094-.786.094-2.265.094-4.054Zm1.5,1.628a.251.251,0,0,0,.13.225,5.176,5.176,0,0,0,1.961.294,2.4,2.4,0,0,0,1.4-.352,3.407,3.407,0,0,0,1.14-2.879c0-2.333-1.23-3.734-3.232-3.734a5.6,5.6,0,0,0-1.249.11.226.226,0,0,0-.15.226Z" transform="translate(-270.796 -213.874)"></path><path class="b" d="M374.511,227.887c-.264-.13-.282-.206-.282-.71,0-.935.075-1.682.1-1.984.017-.2.056-.294.15-.294.111,0,.131.051.131.2a3.217,3.217,0,0,0,.057.69,2.538,2.538,0,0,0,2.762,1.908,2.494,2.494,0,0,0,2.672-2.487c0-1.287-.54-2.035-2.147-3.365l-.843-.691c-1.978-1.626-2.427-2.781-2.427-4.056,0-2,1.494-3.363,3.866-3.363a7.209,7.209,0,0,1,1.738.187,3.21,3.21,0,0,0,.656.094c.15,0,.188.037.188.129s-.075.71-.075,1.982c0,.3-.038.429-.132.429-.113,0-.13-.092-.151-.242a3.111,3.111,0,0,0-.243-.936c-.109-.2-.615-.99-2.336-.99a2.123,2.123,0,0,0-2.3,2.168c0,1.067.484,1.738,2.28,3.139l.522.414c2.2,1.737,2.726,2.895,2.726,4.389a3.865,3.865,0,0,1-1.587,3.1,4.909,4.909,0,0,1-2.82.784A5.7,5.7,0,0,1,374.511,227.887Z" transform="translate(-279.182 -213.74)"></path><path class="b" d="M396.8,222.847c0,1.79,0,3.268.1,4.054.058.54.168.953.73,1.024a7.973,7.973,0,0,0,.838.075c.113,0,.152.057.152.115,0,.09-.1.148-.3.148-1.029,0-2.207-.057-2.3-.057s-1.269.057-1.837.057c-.2,0-.293-.039-.293-.148,0-.058.035-.115.146-.115a2.865,2.865,0,0,0,.563-.075c.373-.071.468-.485.54-1.024.093-.786.093-2.265.093-4.054v-3.292c0-2.912,0-3.438-.037-4.038-.036-.631-.222-.953-.631-1.044a2.515,2.515,0,0,0-.582-.075c-.077,0-.15-.036-.15-.114,0-.11.094-.149.3-.149.617,0,1.792.057,1.887.057s1.268-.057,1.829-.057c.205,0,.3.039.3.149,0,.078-.075.114-.153.114a2.667,2.667,0,0,0-.466.058c-.5.092-.652.408-.689,1.061-.041.6-.041,1.125-.041,4.038Z" transform="translate(-285.853 -213.874)"></path><path class="b" d="M410.92,219.554c0-2.912,0-3.438-.037-4.038-.038-.631-.187-.933-.8-1.061a3.352,3.352,0,0,0-.635-.058c-.075,0-.147-.036-.147-.114,0-.11.09-.149.3-.149.838,0,2.018.057,2.112.057.224,0,1.4-.057,2.52-.057,1.849,0,5.27-.165,7.5,2.131a6.691,6.691,0,0,1,1.81,4.746,7.627,7.627,0,0,1-2.018,5.269,7.4,7.4,0,0,1-5.663,2.15c-.8,0-1.792-.053-2.6-.109s-1.456-.115-1.548-.115c-.04,0-.359,0-.751.018-.375,0-.8.039-1.083.039-.206,0-.3-.039-.3-.148,0-.058.038-.115.149-.115a2.9,2.9,0,0,0,.565-.075c.371-.071.466-.485.538-1.024.094-.786.094-2.265.094-4.054Zm1.569,2.02c0,1.982.021,3.7.036,4.054a4.136,4.136,0,0,0,.208,1.42c.242.358.972.748,3.176.748a6.27,6.27,0,0,0,4.45-1.738,6.556,6.556,0,0,0,1.492-4.465,6.678,6.678,0,0,0-1.792-4.707c-1.757-1.854-3.887-2.115-6.112-2.115a5,5,0,0,0-1.213.131.342.342,0,0,0-.224.373c-.021.638-.021,2.544-.021,3.984Z" transform="translate(-291.117 -213.873)"></path><path class="b" d="M441.5,214.468c.223-.614.3-.728.41-.728s.186.1.416.674c.277.708,3.211,8.425,4.351,11.267.675,1.663,1.215,1.963,1.607,2.077a2.466,2.466,0,0,0,.747.11c.111,0,.189.02.189.115s-.172.148-.375.148c-.284,0-1.647,0-2.934-.039-.355-.018-.561-.018-.561-.129,0-.075.059-.113.13-.132.115-.038.226-.206.115-.507l-1.742-4.593a.162.162,0,0,0-.165-.117h-4.018c-.094,0-.148.061-.189.15l-1.121,3.311a4,4,0,0,0-.264,1.248c0,.379.4.544.712.544H439c.132,0,.188.038.188.115,0,.109-.115.148-.281.148-.449,0-1.253-.057-1.458-.057s-1.235.057-2.109.057c-.245,0-.36-.039-.36-.148,0-.078.077-.115.171-.115.13,0,.391-.018.54-.037.862-.109,1.233-.821,1.57-1.755Zm1.945,7.477c.092,0,.092-.058.078-.133l-1.778-5.042c-.094-.28-.186-.28-.28,0l-1.646,5.042c-.039.094,0,.133.058.133Z" transform="translate(-299.858 -213.74)"></path><path class="b" d="M463.123,219.554c0-2.912,0-3.438-.039-4.038-.036-.631-.184-.933-.8-1.061a3.355,3.355,0,0,0-.635-.058c-.074,0-.148-.036-.148-.114,0-.11.09-.149.3-.149.837,0,2.017.057,2.112.057.224,0,1.4-.057,2.523-.057,1.85,0,5.269-.165,7.493,2.131a6.675,6.675,0,0,1,1.813,4.746,7.637,7.637,0,0,1-2.019,5.269,7.406,7.406,0,0,1-5.663,2.15c-.8,0-1.792-.053-2.6-.109-.821-.057-1.456-.115-1.548-.115-.04,0-.357,0-.749.018-.375,0-.8.039-1.086.039-.206,0-.3-.039-.3-.148,0-.058.036-.115.147-.115a2.885,2.885,0,0,0,.565-.075c.371-.071.466-.485.538-1.024.095-.786.095-2.265.095-4.054Zm1.567,2.02c0,1.982.021,3.7.038,4.054a4.1,4.1,0,0,0,.206,1.42c.243.358.975.748,3.178.748a6.273,6.273,0,0,0,4.45-1.738,6.555,6.555,0,0,0,1.491-4.465,6.67,6.67,0,0,0-1.792-4.707c-1.757-1.854-3.887-2.115-6.114-2.115a5.019,5.019,0,0,0-1.214.131.342.342,0,0,0-.223.373c-.021.638-.021,2.544-.021,3.984Z" transform="translate(-308.882 -213.873)"></path></g><g transform="translate(14355.806 -1413.118)"><g transform="translate(51.101)"><path class="b" d="M309.2,253.662c0-5.66,0-6.7-.077-7.9-.077-1.268-.448-1.9-1.267-2.087a5.312,5.312,0,0,0-1.34-.148c-.372,0-.6-.076-.6-.371,0-.225.3-.3.9-.3,1.416,0,3.763.115,4.842.115.934,0,3.13-.115,4.546-.115.486,0,.782.077.782.3,0,.3-.221.371-.6.371a6.1,6.1,0,0,0-1.113.113c-1.007.185-1.3.817-1.38,2.122-.077,1.193-.077,2.238-.077,7.9v6.557c0,3.614,0,6.556.154,8.158.108,1.008.369,1.678,1.488,1.829a16.556,16.556,0,0,0,1.9.147c.41,0,.595.113.595.3,0,.257-.3.371-.71.371-2.456,0-4.8-.114-5.812-.114-.853,0-3.2.114-4.69.114-.486,0-.746-.114-.746-.371,0-.187.15-.3.6-.3a6.319,6.319,0,0,0,1.34-.147c.743-.15.97-.785,1.081-1.866.187-1.564.187-4.506.187-8.12Z" transform="translate(-305.916 -242.041)"></path><path class="b" d="M328.193,270.308c-.6-.263-.707-.449-.707-1.27,0-2.046.149-4.282.187-4.876.034-.558.148-.97.447-.97.337,0,.372.334.372.635a7.868,7.868,0,0,0,.338,1.9,5.131,5.131,0,0,0,5.326,3.761c3.353,0,4.991-2.27,4.991-4.248,0-1.823-.557-3.537-3.651-5.961l-1.712-1.342c-4.1-3.2-5.512-5.81-5.512-8.825,0-4.1,3.423-7.044,8.6-7.044a17.9,17.9,0,0,1,4.956.635c.339.076.524.187.524.447,0,.484-.151,1.566-.151,4.471,0,.819-.111,1.118-.407,1.118-.262,0-.378-.223-.378-.673a4.525,4.525,0,0,0-.966-2.46,4.721,4.721,0,0,0-4.06-1.826c-2.754,0-4.432,1.6-4.432,3.841,0,1.715.855,3.016,3.947,5.362l1.044.784c4.509,3.389,6.111,5.959,6.111,9.5a7.512,7.512,0,0,1-3.5,6.484,10.771,10.771,0,0,1-5.921,1.526A12.967,12.967,0,0,1,328.193,270.308Z" transform="translate(-313.257 -241.772)"></path><path class="b" d="M361.853,244.675l-5.549.149c-2.162.076-3.056.262-3.617,1.083a4.484,4.484,0,0,0-.634,1.3c-.071.3-.186.448-.41.448-.255,0-.333-.187-.333-.6,0-.6.707-3.987.781-4.283.114-.486.226-.711.451-.711a8.588,8.588,0,0,0,1.6.449c1.077.11,2.494.186,3.725.186H372.62a18.34,18.34,0,0,0,2.571-.186,8.275,8.275,0,0,1,1.007-.186c.259,0,.293.224.293.782,0,.782-.109,3.353-.109,4.321-.038.372-.113.6-.334.6-.3,0-.375-.187-.41-.745l-.036-.409c-.078-.968-1.082-2.012-4.4-2.09l-4.69-.11v15.275c0,3.428,0,6.371.187,7.972.109,1.045.332,1.864,1.448,2.014a16.71,16.71,0,0,0,1.9.147c.41,0,.6.113.6.3,0,.257-.3.371-.71.371-2.455,0-4.8-.114-5.846-.114-.856,0-3.205.114-4.7.114-.482,0-.746-.114-.746-.371,0-.187.149-.3.6-.3a6.342,6.342,0,0,0,1.342-.147c.747-.15.968-.969,1.081-2.051.186-1.564.186-4.508.186-7.935Z" transform="translate(-321.365 -241.772)"></path><path class="b" d="M392.8,242.587c.107-.634.334-.967.633-.967s.521.185,1,1.154L404.6,263.786l10.133-21.274c.3-.6.487-.892.821-.892s.555.373.672,1.154l3.389,23.024c.334,2.345.706,3.427,1.825,3.761a7.46,7.46,0,0,0,2.31.373c.334,0,.594.038.594.263,0,.295-.445.409-.966.409-.936,0-6.076-.114-7.564-.223-.854-.078-1.082-.186-1.082-.411,0-.185.151-.3.414-.41.221-.074.336-.559.184-1.6l-2.233-16.39h-.153l-8.12,16.911c-.858,1.755-1.044,2.089-1.379,2.089s-.708-.743-1.3-1.866c-.9-1.71-3.836-7.409-4.287-8.454-.332-.781-2.569-5.479-3.871-8.272h-.15L391.9,266.8a15.091,15.091,0,0,0-.107,1.753c0,.706.48,1.044,1.11,1.191a7.284,7.284,0,0,0,1.567.187c.3,0,.557.076.557.263,0,.333-.334.409-.891.409-1.567,0-3.242-.114-3.91-.114-.709,0-2.5.114-3.691.114-.373,0-.668-.076-.668-.409,0-.187.222-.263.6-.263a4.884,4.884,0,0,0,1.117-.109c1.043-.224,1.338-1.679,1.524-2.949Z" transform="translate(-333.125 -241.62)"></path><path class="b" d="M441.984,256.674c0-6.371,4.211-14.607,15.388-14.607,9.28,0,15.054,5.4,15.054,13.936s-5.96,15.273-15.428,15.273C446.306,271.276,441.984,263.266,441.984,256.674Zm25.225.706c0-8.347-4.806-13.525-10.918-13.525-4.287,0-9.164,2.385-9.164,11.66,0,7.751,4.281,13.9,11.434,13.9C461.172,269.412,467.209,268.147,467.209,257.38Z" transform="translate(-352.224 -241.772)"></path></g><g transform="translate(0 5.808)"><path class="b" d="M230.926,257.828c0-3.72,0-4.409-.051-5.194-.048-.833-.243-1.222-1.05-1.393a4.845,4.845,0,0,0-.96-.077c-.267,0-.413-.051-.413-.221s.169-.221.538-.221c1.3,0,2.846.074,3.526.074.757,0,2.307-.074,3.775-.074,3.062,0,7.153,0,9.825,2.8a8.729,8.729,0,0,1,2.375,6.221,9.724,9.724,0,0,1-2.67,6.835c-1.124,1.154-3.676,2.9-8.206,2.9-.885,0-1.887-.079-2.819-.15s-1.791-.148-2.4-.148c-.27,0-.81,0-1.4.027-.559,0-1.2.05-1.689.05-.317,0-.488-.077-.488-.247,0-.123.1-.2.392-.2a3.988,3.988,0,0,0,.884-.095c.49-.1.609-.639.708-1.348.124-1.029.124-2.965.124-5.22Zm3.063,2.693c0,2.6.023,4.486.046,4.953a5.494,5.494,0,0,0,.269,1.859c.319.467,1.278.981,3.211.981a7.889,7.889,0,0,0,5.635-1.761c1.569-1.348,2.058-3.578,2.058-6.1a8.308,8.308,0,0,0-2.35-6.121,9.714,9.714,0,0,0-6.96-2.453,6.5,6.5,0,0,0-1.594.173.441.441,0,0,0-.292.491c-.023.83-.023,2.96-.023,4.9Z" transform="translate(-228.452 -250.526)"></path><path class="b" d="M262.189,257.726c0-3.72,0-4.409-.046-5.194-.048-.833-.247-1.222-1.056-1.393a4.8,4.8,0,0,0-.957-.077c-.269,0-.412-.051-.412-.221s.171-.221.539-.221c.661,0,1.37.028,1.983.028.639.023,1.2.046,1.546.046.781,0,5.658,0,6.12-.023a9.654,9.654,0,0,0,1.057-.15,2.559,2.559,0,0,1,.392-.1c.121,0,.146.1.146.224a15.654,15.654,0,0,0-.2,1.593c-.021.242-.072,1.318-.119,1.616-.026.12-.074.268-.246.268s-.22-.121-.22-.341a2.631,2.631,0,0,0-.148-.886c-.173-.439-.413-.732-1.641-.881-.417-.048-2.988-.1-3.478-.1-.125,0-.172.072-.172.246v6.2c0,.171.022.271.172.271.539,0,3.358,0,3.919-.051.59-.049.955-.12,1.176-.363.173-.2.272-.319.393-.319.1,0,.172.049.172.192s-.1.541-.2,1.79c-.029.489-.1,1.472-.1,1.643,0,.194,0,.463-.222.463a.194.194,0,0,1-.22-.22,6.985,6.985,0,0,0-.1-.882c-.121-.489-.467-.856-1.373-.957-.466-.048-2.891-.072-3.478-.072-.125,0-.147.1-.147.244v1.936c0,.834-.025,3.087,0,3.8.046,1.695.441,2.062,2.94,2.062a6.167,6.167,0,0,0,2.3-.3c.635-.291.93-.809,1.1-1.811.048-.269.1-.367.268-.367.2,0,.2.193.2.441a19.629,19.629,0,0,1-.317,2.717c-.179.638-.4.638-1.327.638-1.835,0-3.184-.048-4.237-.071-1.053-.049-1.814-.077-2.547-.077-.271,0-.809,0-1.4.027-.566,0-1.2.049-1.689.049-.319,0-.5-.077-.5-.247,0-.123.1-.2.4-.2a3.925,3.925,0,0,0,.883-.095c.488-.1.611-.639.708-1.348.121-1.029.121-2.965.121-5.22Z" transform="translate(-239.093 -250.425)"></path><path class="b" d="M285.681,262.141c0,3.135,0,4.827.511,5.271.418.363,1.056.537,2.965.537,1.3,0,2.255-.025,2.866-.687a3.031,3.031,0,0,0,.638-1.468c.022-.22.071-.368.272-.368.169,0,.2.121.2.419a19.764,19.764,0,0,1-.37,2.815c-.147.541-.27.662-1.544.662-1.763,0-3.036-.048-4.138-.071-1.106-.05-1.986-.077-2.991-.077-.273,0-.81,0-1.393.027-.567,0-1.205.05-1.7.05-.317,0-.489-.077-.489-.247,0-.123.1-.2.393-.2a3.925,3.925,0,0,0,.882-.095c.491-.1.61-.639.712-1.348.119-1.029.119-2.965.119-5.22v-4.313c0-3.72,0-4.409-.047-5.194-.049-.833-.245-1.222-1.053-1.393a3.492,3.492,0,0,0-.808-.077c-.269,0-.417-.051-.417-.221s.168-.221.537-.221c1.152,0,2.7.074,3.358.074.588,0,2.379-.074,3.334-.074.341,0,.513.051.513.221s-.145.221-.441.221a6.17,6.17,0,0,0-.953.077c-.666.12-.86.537-.908,1.393-.047.785-.047,1.474-.047,5.194Z" transform="translate(-246.094 -250.526)"></path></g></g><line class="c" x2="174.153" transform="translate(14354.649 -1378.185)"></line></g></svg> 